<svg width="24" height="24" viewBox="0 0 24 24" fill="none" xmlns="http://www.w3.org/2000/svg">
<g id="icon_delete">
<path id="Vector" d="M8.33398 19C7.87565 19 7.48329 18.8368 7.1569 18.5104C6.83051 18.184 6.66732 17.7917 6.66732 17.3333V6.5C6.43121 6.5 6.23329 6.42014 6.07357 6.26042C5.91385 6.10069 5.83398 5.90278 5.83398 5.66667C5.83398 5.43056 5.91385 5.23264 6.07357 5.07292C6.23329 4.91319 6.43121 4.83333 6.66732 4.83333H10.0007C10.0007 4.59722 10.0805 4.39931 10.2402 4.23958C10.4 4.07986 10.5979 4 10.834 4H14.1673C14.4034 4 14.6013 4.07986 14.7611 4.23958C14.9208 4.39931 15.0007 4.59722 15.0007 4.83333H18.334C18.5701 4.83333 18.768 4.91319 18.9277 5.07292C19.0875 5.23264 19.1673 5.43056 19.1673 5.66667C19.1673 5.90278 19.0875 6.10069 18.9277 6.26042C18.768 6.42014 18.5701 6.5 18.334 6.5V17.3333C18.334 17.7917 18.1708 18.184 17.8444 18.5104C17.518 18.8368 17.1257 19 16.6673 19H8.33398ZM10.834 15.6667C11.0701 15.6667 11.268 15.5868 11.4277 15.4271C11.5875 15.2674 11.6673 15.0694 11.6673 14.8333V9C11.6673 8.76389 11.5875 8.56597 11.4277 8.40625C11.268 8.24653 11.0701 8.16667 10.834 8.16667C10.5979 8.16667 10.4 8.24653 10.2402 8.40625C10.0805 8.56597 10.0007 8.76389 10.0007 9V14.8333C10.0007 15.0694 10.0805 15.2674 10.2402 15.4271C10.4 15.5868 10.5979 15.6667 10.834 15.6667ZM14.1673 15.6667C14.4034 15.6667 14.6013 15.5868 14.7611 15.4271C14.9208 15.2674 15.0007 15.0694 15.0007 14.8333V9C15.0007 8.76389 14.9208 8.56597 14.7611 8.40625C14.6013 8.24653 14.4034 8.16667 14.1673 8.16667C13.9312 8.16667 13.7333 8.24653 13.5736 8.40625C13.4138 8.56597 13.334 8.76389 13.334 9V14.8333C13.334 15.0694 13.4138 15.2674 13.5736 15.4271C13.7333 15.5868 13.9312 15.6667 14.1673 15.6667Z" fill="#777777"/>
</g>
</svg>
