<svg width="18" height="18" viewBox="0 0 18 18" fill="none" xmlns="http://www.w3.org/2000/svg">
<g id="Icon / File" clip-path="url(#clip0_753_273)">
<path id="Vector" d="M13 14.0625C13 15.1545 12.6107 16.0838 11.832 16.8503C11.0534 17.6168 10.1094 18 9 18C7.87654 18 6.92901 17.602 6.15741 16.806C5.3858 16.01 5 15.053 5 13.9349L5 6.84375C5 6.05382 5.28086 5.38238 5.84259 4.82943C6.40432 4.27648 7.08642 4 7.88889 4C8.7037 4 9.38889 4.29167 9.94444 4.875C10.5 5.45833 10.7778 6.15712 10.7778 6.97135V13.625C10.7778 14.1129 10.6054 14.5266 10.2606 14.8659C9.91586 15.2053 9.49568 15.375 9 15.375C8.49383 15.375 8.07099 15.1982 7.73148 14.8447C7.39198 14.4912 7.22222 14.0603 7.22222 13.5521V7.28125C7.22222 7.09531 7.28574 6.93945 7.41278 6.81367C7.53981 6.68789 7.69722 6.625 7.885 6.625C8.07278 6.625 8.23148 6.68789 8.36111 6.81367C8.49074 6.93945 8.55556 7.09531 8.55556 7.28125V13.625C8.55556 13.7514 8.59753 13.8559 8.68148 13.9385C8.76543 14.0212 8.8716 14.0625 9 14.0625C9.1284 14.0625 9.23457 14.0212 9.31852 13.9385C9.40247 13.8559 9.44444 13.7514 9.44444 13.625V6.84375C9.44444 6.4184 9.29321 6.05686 8.99074 5.75911C8.68827 5.46137 8.31975 5.3125 7.88519 5.3125C7.45074 5.3125 7.08346 5.46745 6.78333 5.77734C6.48333 6.08724 6.33333 6.45486 6.33333 6.88021L6.33333 14.0625C6.33333 14.7917 6.59259 15.4084 7.11111 15.9128C7.62963 16.4171 8.25926 16.6753 9 16.6875C9.74074 16.6997 10.3704 16.4384 10.8889 15.9036C11.4074 15.3689 11.6667 14.7248 11.6667 13.9714V7.28125C11.6667 7.09531 11.7302 6.93945 11.8572 6.81367C11.9843 6.68789 12.1417 6.625 12.3294 6.625C12.5172 6.625 12.6759 6.68789 12.8056 6.81367C12.9352 6.93945 13 7.09531 13 7.28125V14.0625Z" fill="#222222"/>
</g>
<defs>
<clipPath id="clip0_753_273">
<rect width="18" height="18" fill="white"/>
</clipPath>
</defs>
</svg>
