<svg width="16" height="16" viewBox="0 0 16 16" fill="none" xmlns="http://www.w3.org/2000/svg">
<g id="btn_icon">
<path id="Vector" d="M3.28571 14C2.93214 14 2.62946 13.8741 2.37768 13.6223C2.12589 13.3705 2 13.0679 2 12.7143V3.28571C2 2.93214 2.12589 2.62946 2.37768 2.37768C2.62946 2.12589 2.93214 2 3.28571 2H7.35714C7.53929 2 7.69196 2.06125 7.81518 2.18375C7.93839 2.30625 8 2.45804 8 2.63911C8 2.82018 7.93839 2.97321 7.81518 3.09821C7.69196 3.22321 7.53929 3.28571 7.35714 3.28571H3.28571V12.7143H12.7143V8.64286C12.7143 8.46071 12.7755 8.30804 12.898 8.18482C13.0205 8.06161 13.1723 8 13.3534 8C13.5345 8 13.6875 8.06161 13.8125 8.18482C13.9375 8.30804 14 8.46071 14 8.64286V12.7143C14 13.0679 13.8741 13.3705 13.6223 13.6223C13.3705 13.8741 13.0679 14 12.7143 14H3.28571ZM12.7143 4.19643L6.78571 10.125C6.65476 10.256 6.50595 10.3185 6.33929 10.3125C6.17262 10.3065 6.02381 10.2381 5.89286 10.1071C5.7619 9.97619 5.69643 9.8244 5.69643 9.65179C5.69643 9.47917 5.7619 9.32738 5.89286 9.19643L11.8036 3.28571H10.3571C10.175 3.28571 10.0223 3.22446 9.89911 3.10196C9.77589 2.97946 9.71429 2.82768 9.71429 2.64661C9.71429 2.46554 9.77589 2.3125 9.89911 2.1875C10.0223 2.0625 10.175 2 10.3571 2H13.3571C13.5393 2 13.692 2.06161 13.8152 2.18482C13.9384 2.30804 14 2.46071 14 2.64286V5.64286C14 5.825 13.9388 5.97768 13.8162 6.10089C13.6938 6.22411 13.542 6.28571 13.3609 6.28571C13.1798 6.28571 13.0268 6.22411 12.9018 6.10089C12.7768 5.97768 12.7143 5.825 12.7143 5.64286V4.19643Z" fill="white"/>
</g>
</svg>
