<svg width="15" height="24" viewBox="0 0 15 24" fill="none" xmlns="http://www.w3.org/2000/svg">
<path d="M13.7947 10.0104C14.2029 9.10375 14.4265 8.09371 14.4166 7.02911C14.3805 3.17057 11.233 0.0406654 7.43045 0.0787124C3.64204 0.116759 0.583008 3.24451 0.583008 7.09731C0.583008 8.13678 0.805855 9.12313 1.20557 10.0104C1.32017 10.2653 1.44964 10.5115 1.59184 10.7491C2.27453 12.0958 3.66043 15.0276 4.05448 17.3657C4.08349 17.5387 4.22993 17.665 4.40255 17.665H10.597C10.7696 17.665 10.9161 17.5387 10.9451 17.3657C11.3391 15.0276 12.7243 12.0958 13.4077 10.7491C13.5506 10.5122 13.6794 10.2653 13.794 10.0111L13.7947 10.0104Z" fill="#007B5C"/>
<path d="M10.5031 18.3909H4.49685C4.34056 18.3909 4.21387 18.5194 4.21387 18.678V19.3499C4.21387 19.5085 4.34056 19.6371 4.49685 19.6371H10.5031C10.6594 19.6371 10.7861 19.5085 10.7861 19.3499V18.678C10.7861 18.5194 10.6594 18.3909 10.5031 18.3909Z" fill="#007B5C"/>
<path d="M10.1607 20.3638H4.83995C4.69265 20.3638 4.57324 20.4849 4.57324 20.6344V21.3394C4.57324 21.4888 4.69265 21.61 4.83995 21.61H10.1607C10.308 21.61 10.4274 21.4888 10.4274 21.3394V20.6344C10.4274 20.4849 10.308 20.3638 10.1607 20.3638Z" fill="#007B5C"/>
<path d="M5.51818 22.3372H9.48133C9.60938 22.3372 9.71338 22.4427 9.71338 22.5726C9.71338 23.1304 9.26697 23.5834 8.71728 23.5834H6.28223C5.73254 23.5834 5.28613 23.1304 5.28613 22.5726C5.28613 22.4427 5.39013 22.3372 5.51818 22.3372Z" fill="#007B5C"/>
<path d="M5.69474 2.72192C5.69474 2.72192 2.58124 4.16053 3.55398 8.87118" stroke="white" stroke-width="2" stroke-miterlimit="10" stroke-linecap="round"/>
</svg>
