<svg width="20" height="20" viewBox="0 0 20 20" fill="none" xmlns="http://www.w3.org/2000/svg">
<g id="Layer_1" clip-path="url(#clip0_752_9410)">
<path id="Vector" d="M13.0899 7.4834C12.0602 7.5383 11.0297 7.56574 10 7.56574C8.97032 7.56574 7.93912 7.53753 6.90942 7.4834C6.83619 8.29389 6.79883 9.1364 6.79883 9.99569C6.79883 10.855 6.83694 11.7021 6.91017 12.5148C8.96883 12.4058 11.0305 12.4058 13.0891 12.5148C13.1624 11.7021 13.2005 10.8573 13.2005 9.99569C13.2005 9.13412 13.1624 8.29389 13.0899 7.4834Z" fill="#007DD2"/>
<path id="Vector_2" d="M12.9488 13.7289C10.9835 13.6275 9.01603 13.6275 7.05078 13.7289C7.23311 15.0243 7.51034 16.2107 7.87424 17.2187C8.48101 18.8968 9.27533 19.8987 9.99941 19.8987C10.7235 19.8987 11.5186 18.8968 12.1246 17.2187C12.4885 16.2107 12.7657 15.0243 12.948 13.7289H12.9488Z" fill="#007DD2"/>
<path id="Vector_3" d="M19.494 6.79034L19.2437 6.82999C17.5953 7.0938 15.9401 7.28518 14.282 7.40717C14.3567 8.24511 14.3956 9.11202 14.3956 9.99495C14.3956 10.8779 14.3567 11.7501 14.2812 12.5896C15.9394 12.7116 17.5945 12.9037 19.243 13.1668L19.4933 13.2064C19.8206 12.1977 19.9984 11.1188 19.9984 9.99724C19.9984 8.87566 19.8206 7.79755 19.4933 6.78882L19.494 6.79034Z" fill="#007DD2"/>
<path id="Vector_4" d="M7.04958 6.26892C9.01483 6.37032 10.9838 6.37032 12.9491 6.26892C12.7667 4.97122 12.4895 3.78178 12.1249 2.77229C11.5181 1.09489 10.7238 0.0930176 9.99895 0.0930176C9.27412 0.0930176 8.4798 1.09489 7.87379 2.77305C7.50913 3.78255 7.23116 4.97198 7.04883 6.26968L7.04958 6.26892Z" fill="#007DD2"/>
<path id="Vector_5" d="M0.756211 13.1677C2.40538 12.9039 4.06053 12.7125 5.71792 12.5905C5.64319 11.751 5.60359 10.8811 5.60359 9.99587C5.60359 9.11065 5.64244 8.24526 5.71717 7.40809C4.05978 7.28609 2.40463 7.09395 0.755464 6.83091L0.505137 6.79126C0.177844 7.79999 0 8.87887 0 10.0004C0 11.122 0.177844 12.2001 0.505137 13.2089L0.755464 13.1692L0.756211 13.1677Z" fill="#007DD2"/>
<path id="Vector_6" d="M13.2472 2.35065C13.6492 3.46308 13.9526 4.77145 14.1461 6.1942C15.7803 6.07525 17.4123 5.88693 19.0383 5.62769C17.7089 2.77229 15.1183 0.645801 12 0C12.4693 0.57718 12.8915 1.36708 13.2464 2.35065H13.2472Z" fill="#007DD2"/>
<path id="Vector_7" d="M14.1455 13.8035C13.9512 15.2239 13.6485 16.53 13.2473 17.6409C12.8901 18.6298 12.4664 19.422 11.9941 20C15.1154 19.3557 17.7083 17.2284 19.0384 14.37C17.4124 14.1107 15.7804 13.9224 14.1455 13.8035Z" fill="#007DD2"/>
<path id="Vector_8" d="M6.75208 17.6409C6.35081 16.53 6.04818 15.2239 5.85389 13.8035C4.21892 13.9224 2.58694 14.1107 0.960938 14.37C2.29103 17.2284 4.88472 19.3557 8.00521 20C7.53295 19.422 7.10927 18.6298 6.75208 17.6409Z" fill="#007DD2"/>
<path id="Vector_9" d="M5.85315 6.19493C6.04743 4.77219 6.35006 3.46381 6.75208 2.35139C7.10777 1.36705 7.52922 0.57715 7.99849 0.000732422C4.88098 0.645771 2.29029 2.77226 0.960938 5.62842C2.58619 5.88766 4.21818 6.07599 5.8524 6.19493H5.85315Z" fill="#007DD2"/>
</g>
<defs>
<clipPath id="clip0_752_9410">
<rect width="20" height="20" fill="white"/>
</clipPath>
</defs>
</svg>
