<svg width="24" height="24" viewBox="0 0 24 24" fill="none" xmlns="http://www.w3.org/2000/svg">
<g id="icon_delete">
<path id="Vector" d="M17.3522 13.2858H9.51987C8.50795 13.2858 7.64782 12.9317 6.93947 12.2233C6.23113 11.515 5.87695 10.6548 5.87695 9.64292C5.87695 8.631 6.23113 7.77086 6.93947 7.06252C7.64782 6.35417 8.50795 6 9.51987 6C9.74924 6 9.94151 6.07758 10.0967 6.23274C10.2518 6.3879 10.3294 6.58017 10.3294 6.80954C10.3294 7.03891 10.2518 7.23117 10.0967 7.38633C9.94151 7.54149 9.74924 7.61908 9.51987 7.61908C8.9532 7.61908 8.47422 7.81471 8.08294 8.20599C7.69167 8.59727 7.49603 9.07624 7.49603 9.64292C7.49603 10.2096 7.69167 10.6886 8.08294 11.0798C8.47422 11.4711 8.9532 11.6668 9.51987 11.6668H17.3522L15.0247 9.3191C14.8763 9.17069 14.7987 8.98517 14.792 8.76255C14.7852 8.53992 14.8628 8.34766 15.0247 8.18575C15.1731 8.03734 15.362 7.96313 15.5914 7.96313C15.8208 7.96313 16.0097 8.03734 16.1581 8.18575L19.882 11.9096C20.0439 12.0715 20.1248 12.2604 20.1248 12.4763C20.1248 12.6922 20.0439 12.8811 19.882 13.043L16.1581 16.7669C15.9962 16.9288 15.8073 17.0063 15.5914 16.9996C15.3755 16.9928 15.1866 16.9085 15.0247 16.7466C14.8763 16.5847 14.7987 16.3958 14.792 16.1799C14.7852 15.9641 14.8628 15.7752 15.0247 15.6133L17.3522 13.2858Z" fill="#777777"/>
</g>
</svg>
