<svg width="22" height="22" viewBox="0 0 22 22" fill="none" xmlns="http://www.w3.org/2000/svg">
<g id="Social Icons" clip-path="url(#clip0_789_5179)">
<path id="c" d="M22 11C22 4.92492 17.0751 0 11 0C4.92492 0 0 4.92492 0 11C0 16.1586 3.55168 20.4873 8.34284 21.6762V14.3616H6.07464V11H8.34284V9.55152C8.34284 5.80756 10.0373 4.0722 13.713 4.0722C14.41 4.0722 15.6125 4.20904 16.1044 4.34544V7.39244C15.8448 7.36516 15.3938 7.35152 14.8337 7.35152C13.0302 7.35152 12.3332 8.03484 12.3332 9.81112V11H15.9262L15.3089 14.3616H12.3332V21.9195C17.78 21.2617 22.0004 16.6241 22.0004 11H22Z" fill="#0866FF"/>
<path id="d" d="M15.3085 14.3617L15.9258 11.0001H12.3328V9.81118C12.3328 8.0349 13.0297 7.35159 14.8333 7.35159C15.3934 7.35159 15.8444 7.36522 16.104 7.3925V4.34551C15.6121 4.20867 14.4096 4.07227 13.7126 4.07227C10.0369 4.07227 8.34242 5.80763 8.34242 9.55159V11.0001H6.07422V14.3617H8.34242V21.6762C9.19338 21.8874 10.0835 22.0001 10.9996 22.0001C11.4506 22.0001 11.8954 21.9723 12.3323 21.9195V14.3617H15.3081H15.3085Z" fill="white"/>
</g>
<defs>
<clipPath id="clip0_789_5179">
<rect width="22" height="22" fill="white"/>
</clipPath>
</defs>
</svg>
