<svg width="20" height="20" viewBox="0 0 20 20" fill="none" xmlns="http://www.w3.org/2000/svg">
<g id="calendar_today_24dp_5F6368_FILL1_wght400_GRAD0_opsz24 1">
<path id="Vector" d="M4.40078 18C3.96078 18 3.58411 17.8433 3.27078 17.53C2.95745 17.2167 2.80078 16.84 2.80078 16.4V5.2C2.80078 4.76 2.95745 4.38333 3.27078 4.07C3.58411 3.75667 3.96078 3.6 4.40078 3.6H5.20078V2.8C5.20078 2.57333 5.27745 2.38333 5.43078 2.23C5.58411 2.07667 5.77411 2 6.00078 2C6.22745 2 6.41745 2.07667 6.57078 2.23C6.72411 2.38333 6.80078 2.57333 6.80078 2.8V3.6H13.2008V2.8C13.2008 2.57333 13.2774 2.38333 13.4308 2.23C13.5841 2.07667 13.7741 2 14.0008 2C14.2274 2 14.4174 2.07667 14.5708 2.23C14.7241 2.38333 14.8008 2.57333 14.8008 2.8V3.6H15.6008C16.0408 3.6 16.4174 3.75667 16.7308 4.07C17.0441 4.38333 17.2008 4.76 17.2008 5.2V16.4C17.2008 16.84 17.0441 17.2167 16.7308 17.53C16.4174 17.8433 16.0408 18 15.6008 18H4.40078ZM4.40078 16.4H15.6008V8.4H4.40078V16.4Z" fill="#777777"/>
</g>
</svg>
