<svg width="20" height="20" viewBox="0 0 20 20" fill="none" xmlns="http://www.w3.org/2000/svg">
<g id="instagram">
<rect id="bg" width="20" height="20" rx="6" fill="url(#paint0_radial_351_8848)"/>
<rect id="bg_2" width="20" height="20" rx="6" fill="url(#paint1_radial_351_8848)"/>
<rect id="bg_3" width="20" height="20" rx="6" fill="url(#paint2_radial_351_8848)"/>
<g id="instagram_2">
<path d="M15.0003 6.07146C15.0003 6.6632 14.5206 7.14289 13.9289 7.14289C13.3371 7.14289 12.8574 6.6632 12.8574 6.07146C12.8574 5.47973 13.3371 5.00003 13.9289 5.00003C14.5206 5.00003 15.0003 5.47973 15.0003 6.07146Z" fill="white"/>
<path fill-rule="evenodd" clip-rule="evenodd" d="M10.0003 13.5715C11.9727 13.5715 13.5717 11.9725 13.5717 10C13.5717 8.02759 11.9727 6.42861 10.0003 6.42861C8.02783 6.42861 6.42885 8.02759 6.42885 10C6.42885 11.9725 8.02783 13.5715 10.0003 13.5715ZM10.0003 12.1429C11.1837 12.1429 12.1431 11.1835 12.1431 10C12.1431 8.81657 11.1837 7.85718 10.0003 7.85718C8.81681 7.85718 7.85742 8.81657 7.85742 10C7.85742 11.1835 8.81681 12.1429 10.0003 12.1429Z" fill="white"/>
<path fill-rule="evenodd" clip-rule="evenodd" d="M2.85742 9.71432C2.85742 7.3141 2.85742 6.11398 3.32454 5.19722C3.73542 4.39081 4.39105 3.73518 5.19746 3.32429C6.11423 2.85718 7.31434 2.85718 9.71456 2.85718H10.286C12.6862 2.85718 13.8863 2.85718 14.8031 3.32429C15.6095 3.73518 16.2651 4.39081 16.676 5.19722C17.1431 6.11398 17.1431 7.3141 17.1431 9.71432V10.2857C17.1431 12.686 17.1431 13.8861 16.676 14.8029C16.2651 15.6093 15.6095 16.2649 14.8031 16.6758C13.8863 17.1429 12.6862 17.1429 10.286 17.1429H9.71456C7.31434 17.1429 6.11423 17.1429 5.19746 16.6758C4.39105 16.2649 3.73542 15.6093 3.32454 14.8029C2.85742 13.8861 2.85742 12.686 2.85742 10.2857V9.71432ZM9.71456 4.28575H10.286C11.5097 4.28575 12.3415 4.28686 12.9845 4.33939C13.6108 4.39057 13.9311 4.48332 14.1545 4.59716C14.6921 4.87108 15.1292 5.30817 15.4032 5.84578C15.517 6.0692 15.6097 6.3895 15.6609 7.0158C15.7135 7.65879 15.7146 8.49063 15.7146 9.71432V10.2857C15.7146 11.5094 15.7135 12.3413 15.6609 12.9843C15.6097 13.6106 15.517 13.9309 15.4032 14.1543C15.1292 14.6919 14.6921 15.129 14.1545 15.4029C13.9311 15.5168 13.6108 15.6095 12.9845 15.6607C12.3415 15.7132 11.5097 15.7143 10.286 15.7143H9.71456C8.49088 15.7143 7.65903 15.7132 7.01605 15.6607C6.38974 15.6095 6.06945 15.5168 5.84602 15.4029C5.30841 15.129 4.87133 14.6919 4.5974 14.1543C4.48356 13.9309 4.39081 13.6106 4.33964 12.9843C4.2871 12.3413 4.28599 11.5094 4.28599 10.2857V9.71432C4.28599 8.49063 4.2871 7.65879 4.33964 7.0158C4.39081 6.3895 4.48356 6.0692 4.5974 5.84578C4.87133 5.30817 5.30841 4.87108 5.84602 4.59716C6.06945 4.48332 6.38974 4.39057 7.01605 4.33939C7.65903 4.28686 8.49088 4.28575 9.71456 4.28575Z" fill="white"/>
</g>
</g>
<defs>
<radialGradient id="paint0_radial_351_8848" cx="0" cy="0" r="1" gradientUnits="userSpaceOnUse" gradientTransform="translate(7.14286 15) rotate(-55.3758) scale(18.2283)">
<stop stop-color="#B13589"/>
<stop offset="0.79309" stop-color="#C62F94"/>
<stop offset="1" stop-color="#8A3AC8"/>
</radialGradient>
<radialGradient id="paint1_radial_351_8848" cx="0" cy="0" r="1" gradientUnits="userSpaceOnUse" gradientTransform="translate(6.42857 20.7143) rotate(-65.1363) scale(16.1387)">
<stop stop-color="#E0E8B7"/>
<stop offset="0.444662" stop-color="#FB8A2E"/>
<stop offset="0.71474" stop-color="#E2425C"/>
<stop offset="1" stop-color="#E2425C" stop-opacity="0"/>
</radialGradient>
<radialGradient id="paint2_radial_351_8848" cx="0" cy="0" r="1" gradientUnits="userSpaceOnUse" gradientTransform="translate(-1.07143 0.714286) rotate(-8.1301) scale(27.7792 5.94168)">
<stop offset="0.156701" stop-color="#406ADC"/>
<stop offset="0.467799" stop-color="#6A45BE"/>
<stop offset="1" stop-color="#6A45BE" stop-opacity="0"/>
</radialGradient>
</defs>
</svg>
