<svg width="17" height="16" viewBox="0 0 17 16" fill="none" xmlns="http://www.w3.org/2000/svg">
<g id="btn_icon">
<path id="Vector" d="M6.90937 10C6.79502 10 6.69823 9.96122 6.61899 9.88367C6.53966 9.80612 6.5 9.71 6.5 9.59532V8.84646C6.5 8.73709 6.51949 8.63279 6.55848 8.53354C6.59738 8.4343 6.6584 8.34312 6.74152 8.26L12.799 2.19278C12.8671 2.12325 12.9404 2.07376 13.0189 2.0443C13.0973 2.01477 13.1796 2 13.2656 2C13.3516 2 13.4338 2.0138 13.512 2.04139C13.5903 2.06899 13.6662 2.11785 13.7395 2.18797L14.3072 2.75076C14.3773 2.82409 14.427 2.90004 14.4562 2.97861C14.4854 3.05717 14.5 3.13806 14.5 3.22127C14.5 3.30996 14.4846 3.3946 14.4539 3.47519C14.4231 3.55578 14.3742 3.62945 14.3072 3.6962L8.24 9.75848C8.15688 9.8416 8.06591 9.90262 7.96709 9.94152C7.86827 9.98051 7.76435 10 7.65532 10H6.90937ZM13.1719 3.89582L13.8418 3.23076L13.2692 2.65823L12.6042 3.3281L13.1719 3.89582Z" fill="white"/>
<path id="Vector_2" d="M3.78571 14C3.43214 14 3.12946 13.8741 2.87768 13.6223C2.62589 13.3705 2.5 13.0679 2.5 12.7143V3.28571C2.5 2.93214 2.62589 2.62946 2.87768 2.37768C3.12946 2.12589 3.43214 2 3.78571 2H7.85714C8.03929 2 8.19196 2.06125 8.31518 2.18375C8.43839 2.30625 8.5 2.45804 8.5 2.63911C8.5 2.82018 8.43839 2.97321 8.31518 3.09821C8.19196 3.22321 8.03929 3.28571 7.85714 3.28571H3.78571V12.7143H13.2143V8.64286C13.2143 8.46071 13.2755 8.30804 13.398 8.18482C13.5205 8.06161 13.6723 8 13.8534 8C14.0345 8 14.1875 8.06161 14.3125 8.18482C14.4375 8.30804 14.5 8.46071 14.5 8.64286V12.7143C14.5 13.0679 14.3741 13.3705 14.1223 13.6223C13.8705 13.8741 13.5679 14 13.2143 14H3.78571Z" fill="white"/>
</g>
</svg>
