<svg width="20" height="16" viewBox="0 0 20 16" fill="none" xmlns="http://www.w3.org/2000/svg">
<g id="icon_linktree" clip-path="url(#clip0_351_8850)">
<path id="Vector" d="M7.67672 11.5555H8.63581V15.1111C8.63581 15.5999 8.22672 15.9999 7.72672 15.9999H5.90854C5.40854 15.9999 4.99945 15.5999 4.99945 15.1111V11.5555H1.31308C0.622172 11.5555 0.185809 10.8266 0.517627 10.2355L6.02217 0.515505C6.36763 -0.0933843 7.26763 -0.0933843 7.61308 0.515505L9.81763 4.84439L6.88126 10.2355C6.54945 10.8266 6.98581 11.5555 7.67672 11.5555Z" fill="#1DE9B6"/>
<path id="Vector_2" d="M18.6867 11.5555H15.0004V15.1111C15.0004 15.5999 14.5913 15.9999 14.0913 15.9999H12.2731C11.7731 15.9999 11.364 15.5999 11.364 15.1111V11.5555H12.3231C13.014 11.5555 13.4504 10.8266 13.1185 10.2355L10.1367 4.84439L12.3867 0.515505C12.7322 -0.0933843 13.6322 -0.0933843 13.9776 0.515505L19.4822 10.2355C19.814 10.8266 19.3776 11.5555 18.6867 11.5555Z" fill="#26A69A"/>
</g>
<defs>
<clipPath id="clip0_351_8850">
<rect width="20" height="16" fill="white"/>
</clipPath>
</defs>
</svg>
