<svg width="24" height="24" viewBox="0 0 24 24" fill="none" xmlns="http://www.w3.org/2000/svg">
<g id="icon_delete">
<path id="Vector" d="M7.95349 19C7.68134 19 7.45321 18.9079 7.2691 18.7238C7.085 18.5397 6.99294 18.3116 6.99294 18.0395C6.99294 17.7673 7.085 17.5392 7.2691 17.3551C7.45321 17.171 7.68134 17.0789 7.95349 17.0789H13.8128C14.8214 17.0789 15.6979 16.7587 16.4423 16.1184C17.1868 15.478 17.559 14.6775 17.559 13.717C17.559 12.7564 17.1868 11.956 16.4423 11.3156C15.6979 10.6752 14.8214 10.3551 13.8128 10.3551H7.76138L9.58643 12.1801C9.76253 12.3562 9.85058 12.5803 9.85058 12.8525C9.85058 13.1246 9.76253 13.3488 9.58643 13.5249C9.41033 13.701 9.1862 13.789 8.91404 13.789C8.64189 13.789 8.41776 13.701 8.24166 13.5249L4.78368 10.0669C4.68763 9.97084 4.61959 9.86678 4.57957 9.75472C4.53954 9.64265 4.51953 9.52258 4.51953 9.39451C4.51953 9.26644 4.53954 9.14637 4.57957 9.03431C4.61959 8.92224 4.68763 8.81818 4.78368 8.72213L8.24166 5.26415C8.41776 5.08805 8.64189 5 8.91404 5C9.1862 5 9.41033 5.08805 9.58643 5.26415C9.76253 5.44025 9.85058 5.66438 9.85058 5.93654C9.85058 6.20869 9.76253 6.43282 9.58643 6.60892L7.76138 8.43396H13.8128C15.3657 8.43396 16.6985 8.93825 17.8111 9.94683C18.9238 10.9554 19.4801 12.2121 19.4801 13.717C19.4801 15.2218 18.9238 16.4786 17.8111 17.4871C16.6985 18.4957 15.3657 19 13.8128 19H7.95349Z" fill="#777777"/>
</g>
</svg>
