<svg width="20" height="20" viewBox="0 0 20 20" fill="none" xmlns="http://www.w3.org/2000/svg">
<g id="person_24dp_5F6368_FILL1_wght400_GRAD0_opsz24 1">
<path id="Vector" d="M10 10C9.0375 10 8.21354 9.65729 7.52812 8.97187C6.84271 8.28646 6.5 7.4625 6.5 6.5C6.5 5.5375 6.84271 4.71354 7.52812 4.02812C8.21354 3.34271 9.0375 3 10 3C10.9625 3 11.7865 3.34271 12.4719 4.02812C13.1573 4.71354 13.5 5.5375 13.5 6.5C13.5 7.4625 13.1573 8.28646 12.4719 8.97187C11.7865 9.65729 10.9625 10 10 10ZM3 15.25V14.55C3 14.0542 3.1276 13.5984 3.38281 13.1828C3.63802 12.7672 3.97708 12.45 4.4 12.2312C5.30417 11.7792 6.22292 11.4401 7.15625 11.2141C8.08958 10.988 9.0375 10.875 10 10.875C10.9625 10.875 11.9104 10.988 12.8438 11.2141C13.7771 11.4401 14.6958 11.7792 15.6 12.2312C16.0229 12.45 16.362 12.7672 16.6172 13.1828C16.8724 13.5984 17 14.0542 17 14.55V15.25C17 15.7312 16.8286 16.1432 16.4859 16.4859C16.1432 16.8286 15.7312 17 15.25 17H4.75C4.26875 17 3.85677 16.8286 3.51406 16.4859C3.17135 16.1432 3 15.7312 3 15.25Z" fill="#777777"/>
</g>
</svg>
