<svg width="61" height="40" viewBox="0 0 61 40" fill="none" xmlns="http://www.w3.org/2000/svg">
<g id="FLAGS" clip-path="url(#clip0_91_731)">
<rect width="60" height="40" transform="translate(0.5)"/>
<g id="Group">
<path id="Vector" d="M60.5 0H0.5V2.8612H60.5V0Z" fill="#BF0A30"/>
<path id="Vector_2" d="M60.5 28.5742H0.5V31.4354H60.5V28.5742Z" fill="#BF0A30"/>
<path id="Vector_3" d="M60.5 2.86108H0.5V5.72229H60.5V2.86108Z" fill="white"/>
<path id="Vector_4" d="M60.5 5.72241H0.5V8.58362H60.5V5.72241Z" fill="#BF0A30"/>
<path id="Vector_5" d="M60.5 8.5647H0.5V11.4259H60.5V8.5647Z" fill="white"/>
<path id="Vector_6" d="M60.5 11.4258H0.5V14.287H60.5V11.4258Z" fill="#BF0A30"/>
<path id="Vector_7" d="M60.5 14.2871H0.5V17.1483H60.5V14.2871Z" fill="white"/>
<path id="Vector_8" d="M60.5 17.1482H0.5V20.0094H60.5V17.1482Z" fill="#BF0A30"/>
<path id="Vector_9" d="M60.5 19.9905H0.5V22.8517H60.5V19.9905Z" fill="white"/>
<path id="Vector_10" d="M60.5 22.8518H0.5V25.713H60.5V22.8518Z" fill="#BF0A30"/>
<path id="Vector_11" d="M60.5 25.7129H0.5V28.5741H60.5V25.7129Z" fill="white"/>
<path id="Vector_12" d="M60.5 31.4165H0.5V34.2777H60.5V31.4165Z" fill="white"/>
<path id="Vector_13" d="M60.5 34.2776H0.5V37.1388H60.5V34.2776Z" fill="#BF0A30"/>
<path id="Vector_14" d="M60.5 37.1387H0.5V39.9999H60.5V37.1387Z" fill="white"/>
</g>
<g id="Group_2">
<path id="Vector_15" d="M30.4905 0H0.5V22.8517H30.4905V0Z" fill="#002868"/>
<path id="Vector_16" d="M24.8414 15.2156L22.0168 13.8134L22.7561 16.921L20.8035 14.4008L20.14 17.5273L19.4575 14.4008L17.5239 16.9399L18.2443 13.8134L15.4196 15.2535L17.4101 12.7523L14.2632 12.7902L17.1068 11.4259L14.2443 10.0806H17.3912L15.3817 7.61732L18.2063 9.0195L17.467 5.91197L19.4196 8.4321L20.0831 5.30562L20.7656 8.4321L22.6992 5.89302L21.9789 9.0195L24.8035 7.57942L22.813 10.0806L25.9599 10.0427L23.1163 11.407L25.9789 12.7523H22.8319L24.8414 15.2156ZM8.51914 11.4259C8.51914 7.73101 11.4575 4.73717 15.0973 4.73717C15.2869 4.73717 15.4765 4.73717 15.6471 4.77506C14.6992 4.3203 13.6566 4.07397 12.5571 4.07397C8.55705 4.07397 5.29639 7.37099 5.29639 11.4449C5.29639 15.5188 8.53809 18.8158 12.5571 18.8158C13.6566 18.8158 14.7182 18.5505 15.6471 18.1147C15.4575 18.1147 15.2869 18.1526 15.0973 18.1526C11.4575 18.1526 8.51914 15.1588 8.51914 11.4638V11.4259Z" fill="#FFDD00"/>
</g>
</g>
<defs>
<clipPath id="clip0_91_731">
<rect width="60" height="40" fill="white" transform="translate(0.5)"/>
</clipPath>
</defs>
</svg>
