<svg width="61" height="40" viewBox="0 0 61 40" fill="none" xmlns="http://www.w3.org/2000/svg">
<g id="FLAGS" clip-path="url(#clip0_91_779)">
<rect width="60" height="40" transform="translate(0.5)"/>
<path id="Vector" d="M60.5 0H0.5V40H60.5V0Z" fill="white"/>
<g id="Group">
<path id="Vector_2" d="M30.5096 10.4785C26.4337 10.4785 22.9456 12.9986 21.5238 16.5609C21.2963 17.9631 21.4859 19.4411 22.301 20.5401C23.1162 21.6581 24.519 22.3212 25.9029 22.3591C27.2868 22.397 28.6707 21.8854 29.7892 21.0328C30.5664 20.4454 31.2299 19.7064 32.0451 19.1758C32.974 18.5695 34.0925 18.2663 35.192 18.3231C35.8555 18.361 36.519 18.5126 37.0878 18.8537C38.1873 19.4979 38.8318 20.7485 39.0404 22.0181C39.192 22.9086 39.1541 23.8182 39.0593 24.7277C39.7797 23.3634 40.1968 21.8286 40.1968 20.1801C40.1968 14.8366 35.8555 10.4975 30.5096 10.4975V10.4785Z" fill="#CD2E3A"/>
<g id="Group_2">
<path id="Vector_3" d="M39.0404 21.9992C38.8318 20.7296 38.1873 19.479 37.0878 18.8348C36.519 18.4937 35.8555 18.3421 35.192 18.3042C34.0925 18.2474 32.974 18.5695 32.0451 19.1569C31.2299 19.6875 30.5664 20.4264 29.7892 21.0138C28.6897 21.8476 27.3058 22.3781 25.9029 22.3402C24.5001 22.3023 23.1162 21.6391 22.301 20.5212C21.4859 19.4222 21.2963 17.9442 21.5238 16.5989C21.0878 17.66 20.8413 18.8727 20.8413 20.1422C20.8413 25.4857 25.1825 29.8248 30.5285 29.8248C34.2252 29.8248 37.4479 27.7405 39.0783 24.6898C39.1731 23.7803 39.211 22.8708 39.0593 21.9802L39.0404 21.9992Z" fill="#0047A0"/>
<path id="Vector_4" d="M19.2705 6.95221L13.9033 14.7842L15.2171 15.6836L20.5843 7.85167L19.2705 6.95221Z" fill="black"/>
<path id="Vector_5" d="M17.5718 5.79547L12.2046 13.6274L13.5184 14.5269L18.8856 6.69493L17.5718 5.79547Z" fill="black"/>
<path id="Vector_6" d="M15.8916 4.63873L10.5244 12.4707L11.8382 13.3702L17.2054 5.53819L15.8916 4.63873Z" fill="black"/>
<path id="Vector_7" d="M46.0494 30.8828L43.5854 34.4783L44.8992 35.3777L47.3632 31.7822L46.0494 30.8828Z" fill="black"/>
<path id="Vector_8" d="M44.3502 29.726L41.8862 33.3215L43.2 34.221L45.664 30.6255L44.3502 29.726Z" fill="black"/>
<path id="Vector_9" d="M42.6705 28.5693L40.2065 32.1648L41.5203 33.0643L43.9843 29.4687L42.6705 28.5693Z" fill="black"/>
<path id="Vector_10" d="M49.0802 26.3933L46.6162 29.9888L47.93 30.8882L50.394 27.2927L49.0802 26.3933Z" fill="black"/>
<path id="Vector_11" d="M47.4005 25.2365L44.9365 28.832L46.2503 29.7315L48.7143 26.136L47.4005 25.2365Z" fill="black"/>
<path id="Vector_12" d="M45.7013 24.0798L43.2373 27.6753L44.5511 28.5748L47.0151 24.9792L45.7013 24.0798Z" fill="black"/>
<path id="Vector_13" d="M14.0773 24.8227L19.0469 32.9126L20.4039 32.0798L15.4343 23.9899L14.0773 24.8227Z" fill="black"/>
<path id="Vector_14" d="M15.2763 30.6996L17.2998 33.9937L18.6568 33.1608L16.6333 29.8667L15.2763 30.6996Z" fill="black"/>
<path id="Vector_15" d="M12.3286 25.9076L14.8481 30.009L16.2052 29.1762L13.6857 25.0747L12.3286 25.9076Z" fill="black"/>
<path id="Vector_16" d="M10.5812 26.9768L15.5508 35.0667L16.9078 34.2338L11.9383 26.1439L10.5812 26.9768Z" fill="black"/>
<path id="Vector_17" d="M46.8509 10.144L49.1323 13.8579L50.4894 13.0251L48.2079 9.31116L46.8509 10.144Z" fill="black"/>
<path id="Vector_18" d="M43.3548 12.279L45.6362 15.9929L46.9933 15.1601L44.7118 11.4462L43.3548 12.279Z" fill="black"/>
<path id="Vector_19" d="M44.0062 5.53632L46.2876 9.25024L47.6446 8.41742L45.3632 4.7035L44.0062 5.53632Z" fill="black"/>
<path id="Vector_20" d="M42.2386 6.60662L47.3569 14.9387L48.714 14.1059L43.5956 5.77379L42.2386 6.60662Z" fill="black"/>
<path id="Vector_21" d="M40.5096 7.69038L42.791 11.4043L44.148 10.5715L41.8666 6.85755L40.5096 7.69038Z" fill="black"/>
</g>
</g>
</g>
<defs>
<clipPath id="clip0_91_779">
<rect width="60" height="40" fill="white" transform="translate(0.5)"/>
</clipPath>
</defs>
</svg>
