<svg xmlns="http://www.w3.org/2000/svg" xmlns:xlink="http://www.w3.org/1999/xlink" version="1.1" id="Layer_1" x="0px" y="0px" width="612px" height="212.989px" viewBox="0 284.596 612 212.989" enable-background="new 0 284.596 612 212.989" xml:space="preserve">
<g>
	<g>
		<path fill="#FFFFFF" d="M337.377,395.136h-4.894l-14.105-38.574h6.045l10.363,31.089l10.651-31.089h6.045L337.377,395.136z"/>
		<path fill="#FFFFFF" d="M362.134,377.289c0,8.348,4.03,13.242,11.227,13.242c4.605,0,6.908-1.439,10.075-4.318l3.742,3.455    c-4.03,4.03-7.484,6.045-14.105,6.045c-10.075,0-16.983-6.045-16.983-19.862c0-12.378,6.045-19.863,15.832-19.863    c10.075,0,15.833,7.197,15.833,18.711v2.591H362.134z M381.421,366.638c-1.439-3.454-4.895-5.757-8.924-5.757    c-4.03,0-7.485,2.303-8.924,5.757c-0.864,2.015-1.151,3.167-1.151,6.333h20.438C382.572,370.092,382.284,368.941,381.421,366.638z    "/>
		<path fill="#FFFFFF" d="M424.024,395.136v-23.893c0-6.909-3.742-10.363-9.499-10.363c-5.758,0-9.5,3.455-9.5,10.363v23.893h-5.758    v-38.574h5.758v4.318c2.879-3.167,6.621-4.605,10.938-4.605c4.03,0,7.485,1.151,9.788,3.742c2.878,2.591,4.029,6.333,4.029,10.651    v24.756h-5.757V395.136z"/>
		<path fill="#FFFFFF" d="M453.675,395.136c-6.621,0-9.788-4.605-9.788-10.363v-23.605h-4.894v-4.318h4.894v-12.09h5.758v12.09    h8.348v4.318h-8.348v23.605c0,3.454,1.728,5.757,5.182,5.757h2.879v4.894h-4.03V395.136z"/>
		<path fill="#FFFFFF" d="M492.248,395.136v-4.318c-2.878,3.167-6.621,4.894-10.938,4.894c-4.03,0-7.484-1.151-10.075-3.742    c-2.879-2.591-4.03-6.333-4.03-10.938v-24.469h5.757v23.605c0,6.909,3.743,10.363,9.5,10.363s9.5-3.455,9.5-10.363v-23.605h5.757    v38.574H492.248z"/>
		<path fill="#FFFFFF" d="M532.837,364.047c-2.015-2.015-3.742-2.878-6.62-2.878c-5.758,0-9.212,4.606-9.212,10.363v23.604h-5.758    v-38.574h5.758v4.606c2.015-3.167,6.333-5.182,10.938-5.182c3.742,0,6.621,0.864,9.212,3.742L532.837,364.047z"/>
		<path fill="#FFFFFF" d="M546.942,377.289c0,8.348,4.03,13.242,11.227,13.242c4.606,0,6.909-1.439,10.075-4.318l3.742,3.455    c-4.029,4.03-7.484,6.045-14.104,6.045c-10.075,0-16.984-6.045-16.984-19.862c0-12.378,6.045-19.863,15.833-19.863    c10.075,0,15.832,7.197,15.832,18.711v2.591H546.942z M566.229,366.638c-1.439-3.454-4.894-5.757-8.924-5.757    s-7.484,2.303-8.924,5.757c-0.863,2.015-1.151,3.167-1.151,6.333h20.438C567.093,370.092,567.093,368.941,566.229,366.638z"/>
		<path fill="#FFFFFF" d="M596.455,395.712c-6.621,0-11.515-1.439-15.832-5.469l3.742-3.742c3.166,3.167,7.196,4.606,12.09,4.606    c6.333,0,10.363-2.303,10.363-6.909c0-3.455-2.015-5.182-6.333-5.757l-6.333-0.576c-7.484-0.576-11.515-4.03-11.515-10.363    c0-7.197,6.045-11.227,14.105-11.227c5.47,0,10.363,1.439,13.817,4.03l-3.742,3.742c-2.879-2.015-6.333-3.167-10.363-3.167    c-5.757,0-8.636,2.303-8.636,6.333c0,3.167,2.015,5.182,6.621,5.757l6.333,0.576c6.621,0.576,11.227,3.167,11.227,10.363    C612,391.394,605.667,395.712,596.455,395.712z"/>
	</g>
	<g id="QBQD7b.tif_14_">
		<g>
			<path fill="#FFFFFF" d="M321.833,446.952c0.287-1.439,0.287-3.167,0.575-4.606c0.288-2.59,0.863-4.894,1.728-7.196     c0.287-0.575,0.575-1.151,1.151-1.727c0.863-0.864,1.727-0.576,2.015,0.287c0.576,1.439,0.576,2.879,0.864,4.318     c0,1.151,0,2.015,0,3.166c0,0.288,0.287,0.576,0.287,0.864c0.576,1.151,1.439,1.151,2.303,0.287     c0.864-1.438,1.728-3.166,2.591-4.894c0.864-2.015,1.728-4.029,2.879-6.045c0.288-0.863,1.151-1.439,1.728-2.303     c0.288-0.288,0.575-0.576,0.863-0.863c0.863-0.576,1.728-0.288,2.303,0.863c0.288,1.439,0.288,3.166,0,4.605     c-0.287,2.304-0.575,4.606-0.863,7.197c0,0.575,0,0.863,0,1.438c0,0.864,0.576,1.152,1.439,0.864     c0.575-0.288,0.863-0.576,1.151-0.864c2.591-2.59,4.894-5.181,7.484-7.484c0.863-0.863,2.303-1.727,3.454-2.591     c0.576-0.287,1.439-0.863,2.016-0.287c0.863,0.575,0.863,1.439,0.575,2.303c-0.287,1.151-0.863,2.015-1.151,2.879     c-1.439,2.591-3.166,5.181-4.894,7.771c-0.575,0.864-0.863,2.016-1.439,2.879c-0.288,0.864,0.288,1.439,1.151,1.439     c0.576,0,1.151-0.288,1.728-0.575c2.303-1.152,4.605-2.304,6.909-3.455c1.438-0.575,2.878-1.439,4.317-1.439     c0.288,0,0.576,0,0.576,0c1.438,0,1.727,1.151,1.151,2.304c-0.864,1.727-2.303,2.878-3.455,4.029     c-2.878,2.591-5.757,4.895-8.924,6.909c-1.151,0.863-2.59,1.728-3.454,3.166c-0.288,0.288-0.575,0.864-0.575,1.152     c-0.288,1.151,0,1.727,1.439,1.727c1.438,0,3.166,0,4.605,0.288c1.439,0,3.166,0.288,4.605,1.151     c0.576,0.288,1.151,0.863,1.439,1.439c0.288,0.575,0,1.439-0.575,2.015c-1.151,0.864-2.591,1.151-4.03,1.439     c-4.03,0.864-7.772,0.864-11.803,0.288h-0.288c0.288-1.151,0.864-2.303,1.151-3.454c2.304-9.212-3.742-18.424-13.241-20.15     c-2.879-0.576-5.758-0.288-8.636,0.575C322.408,446.664,322.12,446.664,321.833,446.952L321.833,446.952z"/>
			<path fill="#FFFFFF" d="M322.696,451.846c0.863-0.288,2.015-0.576,2.879-0.576c6.62-0.863,12.378,4.606,12.09,11.228     c0,1.727-0.575,3.166-1.439,4.894c-1.151-0.864-2.303-1.439-3.166-2.303C328.453,461.346,324.999,457.315,322.696,451.846     C322.984,451.846,322.984,451.846,322.696,451.846L322.696,451.846z"/>
			<path fill="#FFFFFF" d="M322.696,451.846c-2.016,0.576-3.454,2.015-4.606,3.742c-4.605,6.333-0.863,15.545,6.909,16.696     c4.605,0.575,8.061-0.863,10.938-4.605c0,0,0-0.288,0.288-0.288l0,0c2.016,1.151,4.318,2.015,6.909,2.303     c0,0.288-0.288,0.288-0.288,0.576c-2.879,4.894-6.909,7.771-12.666,8.636c-8.636,1.151-16.408-4.606-18.136-12.666     c-1.727-7.772,2.016-15.257,9.212-18.712c0.288,0,0.575-0.287,0.863-0.575l0,0C322.12,448.392,322.408,450.118,322.696,451.846     L322.696,451.846z"/>
		</g>
	</g>
	<g>
		<g>
			<polygon fill="#FFFFFF" points="274.047,322.595 293.622,322.595 293.622,313.095 244.973,313.095 244.973,322.595      264.547,322.595 264.547,400.03 244.973,400.03 244.973,409.817 293.622,409.817 293.622,400.03 274.047,400.03    "/>
			<path fill="#FFFFFF" d="M205.535,320.004c-11.227-6.045-22.453-6.909-22.741-6.909h-42.892v9.5h7.484v77.436h-7.484v9.499h42.604     l0,0c0.576,0,11.515-0.575,22.742-6.908c10.651-5.758,23.317-17.848,23.317-41.453     C228.564,337.852,215.898,325.761,205.535,320.004z M182.218,400.03h-25.332v-77.436h25.332c1.151,0,9.788,0.863,18.423,5.757     c12.09,6.621,18.135,17.847,18.135,33.104C219.065,396.863,184.809,400.03,182.218,400.03z"/>
			<polygon fill="#FFFFFF" points="112.267,322.595 112.267,313.095 97.874,313.095 56.134,356.275 14.393,313.095 0,313.095      0,322.595 7.484,322.595 7.484,400.03 0,400.03 0,409.817 24.468,409.817 24.468,400.03 16.984,400.03 16.984,328.928      51.24,365.774 51.24,380.455 61.027,380.455 61.027,365.774 95.283,328.928 95.283,400.03 88.086,400.03 88.086,409.817      112.267,409.817 112.267,400.03 104.783,400.03 104.783,322.595    "/>
		</g>
	</g>
	<g>
		<path fill="#FFFFFF" d="M8.348,453.573c-2.303,0-4.03,0.863-5.47,2.591v-7.197c0-0.863-0.576-1.439-1.439-1.439    c-0.864,0-1.439,0.576-1.439,1.439v19.575c0,0.863,0.576,1.439,1.439,1.439c0.863,0,1.439-0.576,1.439-1.439v-0.863    c1.439,1.727,3.167,2.591,5.47,2.591c3.742,0,7.484-2.879,7.484-8.349C16.121,456.451,12.09,453.573,8.348,453.573z M8.06,467.391    c-2.591,0-5.182-2.016-5.182-5.47s2.591-5.47,5.182-5.47c2.879,0,4.894,2.304,4.894,5.47    C12.954,465.088,10.939,467.391,8.06,467.391z"/>
		<path fill="#FFFFFF" d="M31.377,453.573c-0.576,0-1.152,0.287-1.439,1.151l-4.318,11.227l-4.894-11.227    c-0.288-0.864-0.863-1.151-1.439-1.151c-0.864,0-1.439,0.575-1.439,1.439c0,0.287,0,0.575,0.288,0.863l6.333,13.241l0,0    c-0.863,1.728-1.439,2.591-2.878,2.591c-0.864,0-1.151,0-1.439-0.287c-0.288,0-0.288,0-0.576,0c-0.863,0-1.439,0.575-1.439,1.438    c0,0.576,0.288,1.152,0.864,1.439c0.576,0.288,1.439,0.576,2.591,0.576c2.591,0,4.03-1.439,5.469-4.605l6.045-14.105    c0-0.288,0-0.576,0-0.576C33.104,454.148,32.241,453.573,31.377,453.573z"/>
		<path fill="#FFFFFF" d="M61.027,449.831c0-0.864-0.576-1.439-1.439-1.439H45.195c-0.864,0-1.439,0.575-1.439,1.439    c0,0.863,0.576,1.438,1.439,1.438h5.757v16.984c0,0.863,0.576,1.439,1.439,1.439c0.864,0,1.439-0.576,1.439-1.439V451.27h5.757    C60.452,451.27,61.027,450.694,61.027,449.831z"/>
		<path fill="#FFFFFF" d="M67.072,453.573c-4.318,0-7.772,3.742-7.772,8.348s3.454,8.349,8.06,8.349    c2.303,0,4.318-0.864,6.045-2.304c0.288-0.287,0.576-0.575,0.576-0.863c0-1.151-1.151-1.728-2.303-0.863    c-1.151,1.151-2.591,1.727-4.03,1.727c-2.59,0-4.605-1.727-4.894-4.605h10.651c0.864,0,1.439-0.576,1.439-1.439    C74.557,457.604,71.966,453.573,67.072,453.573z M62.467,460.481c0.288-2.591,2.303-4.605,4.605-4.605    c2.879,0,4.03,2.303,4.606,4.605H62.467z"/>
		<path fill="#FFFFFF" d="M79.451,447.24c-0.864,0-1.439,0.575-1.439,1.439v19.574c0,0.863,0.576,1.439,1.439,1.439    c0.863,0,1.439-0.576,1.439-1.439V448.68C80.89,448.104,80.314,447.24,79.451,447.24z"/>
		<path fill="#FFFFFF" d="M93.268,460.77l4.894-4.605c0.288-0.288,0.576-0.576,0.576-1.151c0-0.864-0.576-1.439-1.439-1.439    c-0.576,0-0.864,0.287-1.151,0.575l-7.772,7.772V448.68c0-0.864-0.576-1.439-1.439-1.439s-1.439,0.575-1.439,1.439v19.574    c0,0.863,0.576,1.439,1.439,1.439s1.439-0.576,1.439-1.439v-2.879l2.878-2.878l4.894,6.333c0.288,0.575,0.863,0.575,1.151,0.575    c0.863,0,1.439-0.575,1.439-1.439c0-0.287-0.288-0.575-0.288-0.863L93.268,460.77z"/>
		<path fill="#FFFFFF" d="M109.101,453.573c-4.606,0-8.348,3.742-8.348,8.348s3.742,8.349,8.348,8.349s8.348-3.743,8.348-8.349    C117.161,457.027,113.707,453.573,109.101,453.573z M109.101,467.391c-2.878,0-5.182-2.303-5.182-5.758    c0-3.166,2.303-5.469,5.182-5.469c2.879,0,5.182,2.591,5.182,5.757C114.282,465.088,111.979,467.391,109.101,467.391z"/>
		<path fill="#FFFFFF" d="M138.463,453.573c-2.303,0-4.03,0.863-5.182,2.591c-1.151-1.728-2.878-2.591-4.894-2.591    c-2.303,0-3.742,1.151-4.606,2.303V455.3c0-0.863-0.576-1.439-1.439-1.439c-0.863,0-1.439,0.576-1.439,1.439v13.242    c0,0.863,0.576,1.439,1.439,1.439c0.864,0,1.439-0.576,1.439-1.439v-7.772c0-2.591,1.727-4.318,4.03-4.318    c2.303,0,3.454,1.439,3.454,4.318v8.061c0,0.863,0.576,1.439,1.439,1.439s1.439-0.576,1.439-1.439v-7.772    c0-2.591,1.439-4.318,3.742-4.318c2.303,0,3.742,1.439,3.742,4.318v7.772c0,0.863,0.576,1.439,1.439,1.439    c0.863,0,1.439-0.576,1.439-1.439v-8.924C144.508,455.876,142.205,453.573,138.463,453.573z"/>
		<path fill="#FFFFFF" d="M159.477,448.104c-0.864,0-1.439,0.576-1.439,1.439v18.423c0,0.864,0.576,1.439,1.439,1.439    c0.863,0,1.439-0.575,1.439-1.439v-18.423C161.204,448.967,160.34,448.104,159.477,448.104z"/>
		<path fill="#FFFFFF" d="M173.87,453.573c-2.015,0-3.742,0.863-4.894,2.303V455.3c0-0.863-0.576-1.439-1.439-1.439    s-1.439,0.576-1.439,1.439v13.242c0,0.863,0.576,1.439,1.439,1.439s1.439-0.576,1.439-1.439v-7.772    c0-2.591,1.727-4.318,4.318-4.318s3.742,1.439,3.742,4.318v7.772c0,0.863,0.576,1.439,1.439,1.439s1.439-0.576,1.439-1.439v-8.636    C179.916,455.876,177.612,453.573,173.87,453.573z"/>
		<path fill="#FFFFFF" d="M197.763,447.24c-0.863,0-1.439,0.575-1.439,1.439v7.196c-1.439-1.728-3.167-2.591-5.47-2.591    c-3.742,0-7.484,2.879-7.484,8.348c0,5.47,4.03,8.349,7.484,8.349c2.015,0,4.03-0.864,5.47-2.591v1.151    c0,0.863,0.576,1.439,1.439,1.439c0.864,0,1.439-0.576,1.439-1.439v-19.575C199.202,448.104,198.626,447.24,197.763,447.24z     M191.43,467.391c-2.878,0-4.894-2.303-4.894-5.47c0-3.166,2.015-5.47,4.894-5.47c2.591,0,5.182,2.016,5.182,5.47    C196.324,465.088,193.733,467.391,191.43,467.391z"/>
		<path fill="#FFFFFF" d="M211.005,453.573c-4.606,0-8.348,3.742-8.348,8.348s3.742,8.349,8.348,8.349    c4.605,0,8.348-3.743,8.348-8.349C219.353,457.027,215.61,453.573,211.005,453.573z M211.005,467.391    c-2.879,0-5.182-2.303-5.182-5.758c0-3.166,2.303-5.469,5.182-5.469c2.878,0,5.181,2.591,5.181,5.757    C216.186,465.088,214.171,467.391,211.005,467.391z"/>
		<path fill="#FFFFFF" d="M230.58,453.573c-2.015,0-3.742,0.863-4.894,2.303V455.3c0-0.863-0.576-1.439-1.439-1.439    c-0.864,0-1.439,0.576-1.439,1.439v13.242c0,0.863,0.576,1.439,1.439,1.439c0.863,0,1.439-0.576,1.439-1.439v-7.772    c0-2.591,1.728-4.318,4.318-4.318s3.742,1.439,3.742,4.318v7.772c0,0.863,0.576,1.439,1.439,1.439    c0.863,0,1.439-0.576,1.439-1.439v-8.636C236.625,455.876,234.322,453.573,230.58,453.573z"/>
		<path fill="#FFFFFF" d="M247.563,453.573c-4.318,0-7.772,3.742-7.772,8.348s3.455,8.349,8.061,8.349    c2.303,0,4.318-0.864,6.045-2.304c0.288-0.287,0.576-0.575,0.576-0.863c0-1.151-1.151-1.728-2.303-0.863    c-1.151,1.151-2.591,1.727-4.03,1.727c-2.591,0-4.606-1.727-4.894-4.605h10.651c0.864,0,1.439-0.576,1.439-1.439    C255.048,457.604,252.457,453.573,247.563,453.573z M242.958,460.481c0.288-2.591,2.303-4.605,4.606-4.605    c2.878,0,4.03,2.303,4.606,4.605H242.958z"/>
		<path fill="#FFFFFF" d="M264.26,460.193c-1.728-0.575-3.742-1.151-3.742-2.303s1.151-1.727,2.591-1.727    c1.151,0,2.59,0.287,3.742,1.151c0,0,0.288,0.288,0.576,0.288c0.863,0,1.439-0.576,1.439-1.439c0-0.576-0.288-0.864-0.863-1.151    c-1.439-0.864-3.455-1.439-4.894-1.439c-3.167,0-5.47,2.015-5.47,4.894c0,3.166,3.167,4.03,5.182,4.605    c2.015,0.576,3.455,1.151,3.455,2.303s-1.152,2.016-2.879,2.016c-1.439,0-3.167-0.576-4.606-1.439    c0.288-0.288,0-0.288-0.288-0.288c-0.864,0-1.439,0.576-1.439,1.439c0,0.576,0.288,0.863,0.576,1.151    c1.727,1.151,4.03,2.016,6.045,2.016c3.454,0,5.757-2.016,5.757-4.895C269.441,461.921,266.275,461.058,264.26,460.193z"/>
		<path fill="#FFFFFF" d="M274.623,453.573c-0.863,0-1.439,0.575-1.439,1.439v13.241c0,0.863,0.576,1.439,1.439,1.439    c0.864,0,1.439-0.576,1.439-1.439v-13.241C276.062,454.148,275.486,453.573,274.623,453.573z"/>
		<path fill="#FFFFFF" d="M274.623,447.815c-0.863,0-1.727,0.576-1.727,1.439v0.288c0,0.863,0.864,1.439,1.727,1.439    c0.864,0,1.728-0.576,1.728-1.439v-0.288C276.35,448.392,275.486,447.815,274.623,447.815z"/>
		<path fill="#FFFFFF" d="M291.895,455.3c-1.151-1.151-2.878-1.727-5.182-1.727c-1.727,0-3.454,0.287-5.182,1.151    c-0.288,0.288-0.863,0.575-0.863,1.151c0,0.575,0.576,1.439,1.439,1.439c0.288,0,0.288,0,0.576,0    c1.151-0.576,2.591-0.864,3.742-0.864c2.015,0,4.318,0.576,4.318,3.742l0,0c-1.151-0.287-2.591-0.575-4.318-0.575    c-4.318,0-6.909,2.015-6.909,5.182c0,3.454,3.167,5.182,6.045,5.182c2.591,0,4.03-0.864,5.182-2.016v0.576    c0,0.863,0.576,1.439,1.439,1.439c0.863,0,1.439-0.576,1.439-1.439v-8.636C293.622,457.891,293.046,456.451,291.895,455.3z     M290.743,463.648c0,2.015-2.015,3.742-4.894,3.742c-1.728,0-3.455-0.864-3.455-2.879c0-1.728,1.439-2.879,4.03-2.879    c1.439,0,2.878,0.288,4.03,0.576v1.439H290.743z"/>
	</g>
</g>
</svg>