<svg width="61" height="40" viewBox="0 0 61 40" fill="none" xmlns="http://www.w3.org/2000/svg">
<g id="FLAGS" clip-path="url(#clip0_91_837)">
<rect width="60" height="40" transform="translate(0.5)"/>
<path id="Vector" d="M60.5 0H0.5V19.9905H60.5V0Z" fill="#0038A8"/>
<path id="Vector_2" d="M60.5 19.9905H0.5V39.981H60.5V19.9905Z" fill="#CE1126"/>
<path id="Vector_3" d="M0.5 0L31.4763 19.9905L0.5 40V0Z" fill="white"/>
<path id="Vector_4" d="M3.07835 9.13302L4.12101 7.56031L5.94091 8.07192L4.76556 6.59394L5.80821 5.02123L4.04518 5.68442L2.86982 4.1875L2.94565 6.08234L1.18262 6.74553L3.00252 7.25713L3.07835 9.13302Z" fill="#FCD116"/>
<path id="Vector_5" d="M23.249 21.4685L25.05 20.9001L26.1305 22.4538L26.1685 20.559L27.9694 20.0095L26.1874 19.4031L26.2064 17.5083L25.0879 19.0242L23.2869 18.4178L24.3865 19.9526L23.249 21.4685Z" fill="#FCD116"/>
<path id="Vector_6" d="M3.23012 35.8313L4.27278 34.2396L6.09268 34.7323L4.89837 33.2543L5.92206 31.6816L4.15903 32.3448L2.98368 30.8857L3.07846 32.7616L1.31543 33.4438L3.13533 33.9364L3.23012 35.8313Z" fill="#FCD116"/>
<path id="Vector_7" d="M18.5098 19.2514L15.2112 19.4409C15.1164 18.7398 14.8321 18.0956 14.434 17.565L16.8984 15.367C17.2397 15.007 17.2017 14.5333 16.8984 14.2491C16.5951 13.9648 16.1212 14.0027 15.8368 14.3059L13.6378 16.7692C13.107 16.3713 12.4624 16.0871 11.761 15.9923L11.9506 12.6953C11.9316 12.2026 11.5714 11.8805 11.1543 11.8995C10.7373 11.9184 10.415 12.2784 10.4529 12.6953L10.6425 15.9923C9.94107 16.0871 9.29653 16.3713 8.76572 16.7692L6.56667 14.3059C6.20648 13.9648 5.73254 14.0027 5.44818 14.3059C5.16382 14.6091 5.20174 15.0828 5.50506 15.367L7.96951 17.565C7.57141 18.0956 7.28705 18.7398 7.19226 19.4409L3.89368 19.2514C3.40079 19.2704 3.07852 19.6304 3.09747 20.0473C3.11643 20.4641 3.47662 20.7863 3.89368 20.7484L7.19226 20.5589C7.28705 21.26 7.57141 21.9042 7.96951 22.4348L5.50506 24.6328C5.16382 24.9928 5.20174 25.4665 5.50506 25.7507C5.80837 26.035 6.28231 25.9971 6.56667 25.6939L8.76572 23.2306C9.29653 23.6285 9.94107 23.9127 10.6425 24.0075L10.4529 27.3045C10.4719 27.7972 10.8321 28.1193 11.2491 28.1003C11.6662 28.0814 11.9885 27.7214 11.9506 27.3045L11.761 24.0075C12.4624 23.9127 13.107 23.6285 13.6378 23.2306L15.8368 25.6939C16.197 26.035 16.6709 25.9971 16.9553 25.6939C17.2397 25.3907 17.2017 24.917 16.8984 24.6328L14.434 22.4348C14.8321 21.9042 15.1164 21.26 15.2112 20.5589L18.5098 20.7484C19.0027 20.7294 19.325 20.3694 19.306 19.9525C19.287 19.5357 18.9269 19.2135 18.5098 19.2514Z" fill="#FCD116"/>
</g>
<defs>
<clipPath id="clip0_91_837">
<rect width="60" height="40" fill="white" transform="translate(0.5)"/>
</clipPath>
</defs>
</svg>
