<svg width="290" height="193" viewBox="0 0 290 193" fill="none" xmlns="http://www.w3.org/2000/svg">
<g clip-path="url(#clip0_752_9199)">
<path d="M290 0H0V193H290V0Z" fill="#DE2910"/>
<path d="M49.8449 31.8162L55.9839 50.467H75.5921L59.7406 61.9867L65.788 80.6376L49.8449 69.1179L33.9934 80.6376L40.0408 61.9867L24.0977 50.467H43.7975L49.8449 31.8162Z" fill="#FFEA00"/>
<path d="M108.211 15.9082L107.661 22.5823L113.8 25.1422L107.295 26.605L106.745 33.2791L103.263 27.6107L96.7578 29.0735L101.156 24.0451L97.6741 18.3767L103.813 20.9366L108.211 15.9082Z" fill="#FFEA00"/>
<path d="M123.972 38.9475L128.462 43.7931L134.509 40.9589L131.302 46.8101L135.883 51.6557L129.378 50.4672L126.171 56.227L125.255 49.6443L118.749 48.4558L124.796 45.6216L123.972 38.9475Z" fill="#FFEA00"/>
<path d="M128.003 71.2207L130.019 77.5291H136.708L131.394 81.4604L133.409 87.7688L128.003 83.8375L122.597 87.7688L124.705 81.4604L119.299 77.5291H125.896L128.003 71.2207Z" fill="#FFEA00"/>
<path d="M107.936 94.8086L107.478 101.391L113.709 103.86L107.295 105.505L106.837 112.18L103.264 106.511L96.8496 108.248L101.064 103.128L97.491 97.4599L103.63 99.9284L107.936 94.8086Z" fill="#FFEA00"/>
</g>
<defs>
<clipPath id="clip0_752_9199">
<rect width="290" height="193" fill="white"/>
</clipPath>
</defs>
</svg>
