<svg width="290" height="193" viewBox="0 0 290 193" fill="none" xmlns="http://www.w3.org/2000/svg">
<g clip-path="url(#clip0_752_9157)">
<path d="M290 0H0V193H290V0Z" fill="white"/>
<path d="M290 0H0V96.4543H290V0Z" fill="#ED2939"/>
<path d="M83.7469 37.4845L88.145 34.2846L92.5431 37.4845L90.8022 32.2732L95.2003 29.0733L89.7943 29.1648L88.0533 24.0449L86.4041 29.1648L80.998 29.2562L85.3961 32.3647L83.7469 37.4845Z" fill="white"/>
<path d="M66.2467 50.1929L70.5532 46.993L75.0429 50.1929L73.302 44.9816L77.6085 41.7817L72.2025 41.8731L70.4615 36.6619L68.8123 41.8731L63.4062 41.9646L67.8044 45.073L66.2467 50.1929Z" fill="white"/>
<path d="M101.339 50.1929L105.646 46.993L110.136 50.1929L108.395 44.9816L112.701 41.7817L107.295 41.8731L105.554 36.6619L103.997 41.8731L98.499 41.9646L102.989 45.073L101.339 50.1929Z" fill="white"/>
<path d="M74.4928 67.5637L78.7993 64.2724L83.1974 67.4723L81.5481 62.261L85.8546 59.0611L80.4485 59.1526L78.7076 54.0327L77.0583 59.1526L71.6523 59.244L76.0504 62.3525L74.4928 67.5637Z" fill="white"/>
<path d="M93.0934 67.5637L97.3998 64.2724L101.89 67.4723L100.149 62.261L104.547 59.0611L99.0491 59.1526L97.3082 54.0327L95.7506 59.1526L90.2529 59.244L94.7427 62.3525L93.0934 67.5637Z" fill="white"/>
<path d="M61.1155 74.6949C46.0886 63.9981 42.6068 43.153 53.3271 28.1591C57.6336 22.0336 63.681 17.9194 70.2782 15.7252C58.0001 13.6224 45.0807 18.468 37.2924 29.2562C26.572 44.2501 30.0538 65.0952 45.0807 75.792C54.0602 82.1918 65.0554 83.4718 74.7679 80.3633C70.0033 79.5405 65.3303 77.6205 61.0238 74.6949H61.1155Z" fill="white"/>
</g>
<defs>
<clipPath id="clip0_752_9157">
<rect width="290" height="193" fill="white"/>
</clipPath>
</defs>
</svg>
